# xmcd
#
# Track frame offsets:
#	150
#	12355
#	26927
#	53292
#	67622
#	94578
#	118453
#	142262
#	166975
#	188852
#
# Disc length: 2926 seconds
#
# Revision: 0
# Processed by: cddbd v1.5.2PL0 Copyright (c) Steve Scherf et al.
# Submitted via: EasyCDDAExtractor 16.0.0.1
#
DISCID=840b6c0a
DTITLE=Alberto Vergara - Claudio Perna - ESCULTURA SONORA
DYEAR=1900
DGENRE=
TTITLE0=LAS IDEAS ME BAILAN EN LA MENTE
TTITLE1=ACTIVA TU MENTE
TTITLE2=EL SUEÑO DE CASILDA
TTITLE3=YO SOY
TTITLE4=DOS ZORROS
TTITLE5=AFINCANDO
TTITLE6=EN EL MERCADO
TTITLE7=¡AY AMOR!
TTITLE8=VIDA MIA
TTITLE9=RADAR
EXTD=
EXTT0=
EXTT1=
EXTT2=
EXTT3=
EXTT4=
EXTT5=
EXTT6=
EXTT7=
EXTT8=
EXTT9=
PLAYORDER=
